<svg width="140" height="42" viewBox="0 0 221 67" fill="none" xmlns="http://www.w3.org/2000/svg">
<path d="M34.7709 32.191C36.3506 25.7885 37.9304 19.2752 39.5101 12.6511C43.0207 12.2201 46.5312 11.8138 50.0418 11.4321C46.5312 23.4983 43.0207 35.1459 39.5101 46.3749C36.4384 47.0152 33.3667 47.6677 30.2949 48.3326C28.5397 42.8289 26.7844 37.1898 25.0291 31.4153C23.2738 37.8793 21.5186 44.3064 19.7633 50.6966C16.6806 51.4107 13.6034 52.1187 10.5316 52.8205C7.0211 41.7762 3.51055 30.4857 0 18.9489C3.51055 18.3579 7.0211 17.7607 10.5316 17.1574C12.1114 23.3875 13.6911 29.5499 15.2709 35.6446C16.9823 28.9835 18.6992 22.2671 20.4215 15.4952C23.4823 15.0027 26.554 14.5164 29.6367 14.0362C31.3371 20.2171 33.0485 26.2687 34.7709 32.191Z" fill="#8166EF"/>
<path d="M80.8468 40.3726C77.5063 42.5888 73.3759 43.346 68.4721 43.1429C63.5519 43.3276 59.4215 42.3672 56.0975 39.8924C52.7076 37.2514 51.0291 33.5761 51.0291 28.8112C51.0291 23.917 52.7076 19.466 56.0975 15.5506C59.4709 11.5983 63.6013 9.49291 68.4721 9.41904C73.343 9.47445 77.457 11.6168 80.8468 15.6799C84.2203 19.743 85.9152 24.3787 85.9152 29.4391C85.9152 34.3333 84.2203 37.9717 80.8468 40.3726ZM60.9025 28.0909C60.9025 30.3071 61.6266 32.0432 63.0747 33.336C64.5228 34.6104 66.3165 35.2198 68.4721 35.2383C70.6114 35.2937 72.4215 34.7396 73.8696 33.5022C75.3177 32.2833 76.0418 30.5657 76.0418 28.331C76.0418 26.0593 75.3177 24.0832 73.8696 22.5133C72.4215 20.925 70.6114 20.0939 68.4721 20.0755C66.3165 20.057 64.5228 20.8512 63.0747 22.3841C61.6266 23.917 60.9025 25.8377 60.9025 28.0909Z" fill="#8166EF"/>
<path d="M119.666 51.9155C116.325 54.9629 112.211 55.4246 107.291 53.5038C102.371 51.6015 98.257 48.3511 94.9165 43.8632C91.543 39.5784 89.8481 35.0721 89.8481 30.067C89.8481 24.9143 91.543 20.648 94.9165 17.2867C98.2899 13.8885 102.42 12.5402 107.291 13.3159C112.162 14.1286 116.292 16.8065 119.666 21.3868C123.039 26.0409 124.734 31.3968 124.734 37.4545C124.734 43.6785 123.039 48.5912 119.666 51.9155ZM99.7215 31.9693C99.7215 34.4811 100.446 36.6973 101.894 38.655C103.342 40.6311 105.135 41.9424 107.291 42.5519C109.447 43.1798 111.241 42.8474 112.689 41.5176C114.137 40.151 114.861 38.1009 114.861 35.3306C114.861 32.5973 114.137 30.1963 112.689 28.1832C111.241 26.1886 109.447 25.0066 107.291 24.6003C105.135 24.2125 103.342 24.7111 101.894 26.1147C100.446 27.4814 99.7215 29.4391 99.7215 31.9693Z" fill="#8166EF"/>
<path d="M149.977 18.4502C154.289 18.5056 157.991 20.5372 161.101 24.6003C164.178 28.6634 165.709 33.8347 165.709 40.2248C165.709 46.8736 164.178 52.7836 161.101 57.8994C158.041 63.2184 154.322 66.081 149.977 66.1734C145.732 65.8779 142.457 63.3107 140.17 58.8413C140.17 60.3927 140.17 61.9502 140.17 63.5139C136.878 62.7136 133.587 61.8209 130.296 60.8359C130.307 40.3356 130.313 20.9558 130.313 2.69643C133.604 3.12737 136.895 3.52752 140.186 3.8969C140.186 10.0162 140.186 16.314 140.186 22.7904C142.473 19.7246 145.748 18.3025 149.977 18.4502ZM142.342 48.2402C143.839 50.475 145.732 51.6939 148.003 51.8416C150.29 51.9525 152.149 50.9367 153.597 48.8497C155.095 46.7812 155.835 44.0663 155.835 40.6865C155.835 37.3991 155.095 34.795 153.597 32.9112C152.149 31.0089 150.29 30.0486 148.003 29.9562C145.732 29.8454 143.839 30.658 142.342 32.4126C140.894 34.1671 140.17 36.6604 140.17 39.9293C140.17 43.2722 140.894 46.0425 142.342 48.2402Z" fill="#8166EF"/>
<path d="M181.177 59.8386C177.886 60.6143 174.595 61.3653 171.304 62.0918C171.304 40.6804 171.304 20.3464 171.304 1.08965C174.595 0.732592 177.886 0.369374 181.177 0C181.177 19.3798 181.177 39.326 181.177 59.8386Z" fill="#8166EF"/>
<path d="M220.605 39.7262C212.816 39.8493 205.027 40.3418 197.238 41.2037C198.324 44.6573 200.957 46.024 205.137 45.3961C207.803 45.0452 209.909 43.9186 211.439 41.9978C214.083 43.3891 216.722 44.762 219.354 46.1164C216.146 50.7705 211.357 53.8732 205.005 55.2399C199.509 56.5327 195.082 55.6277 191.709 52.3588C188.418 48.9421 186.772 44.0479 186.772 37.8424C186.772 31.7846 188.385 26.558 191.643 22.1809C194.934 17.8592 199.147 15.5137 204.281 15.2182C209.053 15.0889 213.035 17.1944 216.195 21.4052C219.387 25.5792 221 30.4549 221 35.7923C221 37.2329 220.852 38.5442 220.605 39.7262ZM197.04 32.4864C201.758 32.1048 206.475 31.8277 211.192 31.6554C210.222 27.7031 207.901 25.69 204.215 25.8008C200.397 26.0224 197.995 28.2756 197.04 32.4864Z" fill="#8166EF"/>
</svg>
