<svg width="1185" height="720" viewBox="0 0 1185 720" fill="none" xmlns="http://www.w3.org/2000/svg">
<g clip-path="url(#clip0_13_21)">
<rect width="1185" height="720" fill="#336BEA"/>
<g opacity="0.4">
<path fill-rule="evenodd" clip-rule="evenodd" d="M1663.61 -990.566C1924.46 -251.176 1688.45 -920.148 1949.31 -180.758C2210.17 558.631 2101.63 798.752 1384.93 1067.87C668.233 1336.98 1316.68 1093.5 599.976 1362.61C-116.724 1631.73 -349.476 1519.76 -610.333 780.37C-871.19 40.9801 -635.176 709.952 -896.034 -29.4379C-1156.89 -768.827 -1048.36 -1008.95 -331.658 -1278.06C385.042 -1547.18 53.084 -1422.53 453.299 -1572.81C1170 -1841.92 1402.75 -1729.95 1663.61 -990.566Z" stroke="#B1D6FF" stroke-width="4"/>
<path fill-rule="evenodd" clip-rule="evenodd" d="M1373.04 -892.688C1630.95 -322.099 1397.61 -838.346 1655.51 -267.757C1913.42 302.831 1843.14 502.036 1290.06 768.105C736.98 1034.18 1237.38 793.445 684.306 1059.52C131.227 1325.59 -61.8645 1253.08 -319.769 682.492C-577.674 111.903 -344.332 628.15 -602.237 57.5616C-860.141 -513.027 -789.862 -712.231 -236.783 -978.301C316.296 -1244.37 60.1228 -1121.13 368.97 -1269.71C922.048 -1535.78 1115.14 -1463.28 1373.04 -892.688Z" stroke="#B1D6FF" stroke-width="4"/>
<path fill-rule="evenodd" clip-rule="evenodd" d="M1148.08 -793.795C1392.23 -357.525 1171.33 -752.245 1415.49 -315.975C1659.64 120.295 1617.08 284.141 1194.2 536.021C771.317 787.902 1153.93 560.01 731.043 811.891C308.161 1063.77 149.343 1019.87 -94.8079 583.599C-338.959 147.329 -118.06 542.049 -362.212 105.779C-606.363 -330.491 -563.808 -494.336 -140.925 -746.217C281.957 -998.098 86.0879 -881.433 322.231 -1022.09C745.113 -1273.97 903.931 -1230.06 1148.08 -793.795Z" stroke="#B1D6FF" stroke-width="4"/>
<path fill-rule="evenodd" clip-rule="evenodd" d="M975.13 -698.362C1199.08 -368.402 996.458 -666.937 1220.41 -336.978C1444.36 -7.01804 1421.53 126.553 1101.69 357.594C781.861 588.634 1071.23 379.597 751.401 610.637C431.567 841.678 302.094 818.125 78.1442 488.166C-145.806 158.206 56.8156 456.741 -167.134 126.782C-391.085 -203.178 -368.255 -336.749 -48.4211 -567.789C271.413 -798.829 123.273 -691.817 301.873 -820.833C621.707 -1051.87 751.179 -1028.32 975.13 -698.362Z" stroke="#B1D6FF" stroke-width="4"/>
<path fill-rule="evenodd" clip-rule="evenodd" d="M843.87 -610.005C1044.59 -363.229 862.986 -586.502 1063.7 -339.726C1264.42 -92.9499 1255.25 15.1087 1016.05 222.179C776.846 429.248 993.268 241.899 754.065 448.969C514.862 656.039 410.119 646.585 209.404 399.809C8.68825 153.033 190.288 376.307 -10.4275 129.53C-211.143 -117.246 -201.979 -225.305 37.2242 -432.374C276.428 -639.444 165.634 -543.534 299.209 -659.165C538.412 -866.235 643.155 -856.781 843.87 -610.005Z" stroke="#B1D6FF" stroke-width="4"/>
<path fill-rule="evenodd" clip-rule="evenodd" d="M745.334 -530.306C921.973 -348.074 762.156 -512.95 938.796 -330.718C1115.44 -148.486 1115.44 -61.7094 938.796 120.522C762.156 302.754 921.973 137.878 745.334 320.11C568.694 502.342 484.58 502.342 307.94 320.11C131.3 137.878 291.117 302.754 114.478 120.522C-62.162 -61.7094 -62.162 -148.486 114.478 -330.718C291.117 -512.95 209.302 -428.545 307.94 -530.306C484.58 -712.537 568.694 -712.537 745.334 -530.306Z" stroke="#B1D6FF" stroke-width="4"/>
<path fill-rule="evenodd" clip-rule="evenodd" d="M672.048 -459.352C824.987 -326.958 686.613 -446.743 839.553 -314.349C992.492 -181.954 998.351 -112.865 870.02 44.9162C741.688 202.698 857.798 59.943 729.466 217.724C601.135 375.506 534.166 381.55 381.226 249.156C228.287 116.762 366.661 236.547 213.721 104.153C60.7817 -28.2415 54.9227 -97.3309 183.254 -255.112C311.586 -412.894 252.146 -339.813 323.808 -427.92C452.139 -585.702 519.108 -591.746 672.048 -459.352Z" stroke="#B1D6FF" stroke-width="4"/>
<path fill-rule="evenodd" clip-rule="evenodd" d="M618.637 -398.063C749.552 -303.493 631.105 -389.056 762.02 -294.487C892.934 -199.917 902.279 -145.244 810.611 -10.1851C718.944 124.874 801.881 2.67769 710.214 137.737C618.547 272.796 565.551 282.436 434.637 187.867C303.722 93.2974 422.169 178.86 291.254 84.2908C160.34 -10.2785 150.995 -64.9519 242.663 -200.011C334.33 -335.07 291.872 -272.514 343.06 -347.933C434.727 -482.992 487.723 -492.632 618.637 -398.063Z" stroke="#B1D6FF" stroke-width="4"/>
<path fill-rule="evenodd" clip-rule="evenodd" d="M580.157 -345.196C690.882 -279.245 590.702 -338.915 701.427 -272.964C812.151 -207.013 823.294 -164.113 759.367 -49.8835C695.44 64.3463 753.279 -39.0045 689.352 75.2254C625.425 189.455 583.841 200.95 473.117 135C362.392 69.049 462.572 128.719 351.847 62.768C241.123 -3.18265 229.981 -46.0828 293.907 -160.313C357.834 -274.542 328.225 -221.634 363.922 -285.421C427.849 -399.651 469.433 -411.146 580.157 -345.196Z" stroke="#B1D6FF" stroke-width="4"/>
<path fill-rule="evenodd" clip-rule="evenodd" d="M553.063 -300.295C645.763 -255.7 561.892 -296.048 654.591 -251.453C747.291 -206.858 759.071 -173.47 715.844 -77.8352C672.617 17.7993 711.727 -68.7271 668.501 26.9074C625.274 122.542 592.91 134.694 500.211 90.099C407.511 45.5039 491.382 85.8519 398.682 41.2568C305.983 -3.33832 294.203 -36.7263 337.43 -132.361C380.657 -227.995 360.635 -183.7 384.773 -237.103C428 -332.738 460.363 -344.89 553.063 -300.295Z" stroke="#B1D6FF" stroke-width="4"/>
<path fill-rule="evenodd" clip-rule="evenodd" d="M534.487 -262.184C611.193 -233.381 541.792 -259.44 618.499 -230.638C695.206 -201.835 706.822 -176.135 678.903 -97.0001C650.984 -17.8649 676.244 -89.4634 648.325 -10.3282C620.406 68.8069 595.495 80.7908 518.788 51.988C442.082 23.1851 511.483 49.2449 434.776 20.442C358.069 -8.36084 346.453 -34.0604 374.372 -113.196C402.291 -192.331 389.36 -155.677 404.95 -199.867C432.869 -279.003 457.78 -290.986 534.487 -262.184Z" stroke="#B1D6FF" stroke-width="4"/>
<path fill-rule="evenodd" clip-rule="evenodd" d="M522.269 -231.042C585.443 -213.579 528.286 -229.379 591.459 -211.916C654.633 -194.453 665.644 -174.777 648.717 -109.604C631.789 -44.4304 647.104 -103.397 630.177 -38.2234C613.25 26.95 594.178 38.3097 531.005 20.8465C467.831 3.38328 524.988 19.1833 461.815 1.72012C398.641 -15.7431 387.63 -35.4185 404.558 -100.592C421.485 -165.765 413.645 -135.579 423.097 -171.972C440.024 -237.146 459.096 -248.506 522.269 -231.042Z" stroke="#B1D6FF" stroke-width="4"/>
<path fill-rule="evenodd" clip-rule="evenodd" d="M514.689 -204.78C566.022 -195.442 519.578 -203.89 570.911 -194.553C622.244 -185.215 632.311 -170.382 623.26 -117.424C614.209 -64.4658 622.398 -112.38 613.347 -59.4222C604.295 -6.464 589.918 3.92177 538.585 -5.41619C487.252 -14.7541 533.696 -6.30551 482.363 -15.6435C431.03 -24.9814 420.963 -39.8138 430.014 -92.772C439.066 -145.73 434.873 -121.201 439.928 -150.774C448.979 -203.732 463.356 -214.118 514.689 -204.78Z" stroke="#B1D6FF" stroke-width="4"/>
</g>
<path d="M130.2 398V300H151.48V398H130.2ZM208.69 379.8H217.93V398H203.51C198.003 398 193.196 396.927 189.09 394.78C185.076 392.633 181.996 389.553 179.85 385.54C177.703 381.433 176.63 376.58 176.63 370.98V338.78H162.91V334.44L192.87 302.66H196.65V322.4H217.51V338.78H197.07V368.32C197.07 371.96 198.05 374.807 200.01 376.86C202.063 378.82 204.956 379.8 208.69 379.8ZM231.186 340.46V330.38C233.613 330.1 235.619 329.353 237.206 328.14C238.886 326.833 240.053 325.387 240.706 323.8C241.453 322.12 241.826 320.253 241.826 318.2H230.066V296.36H252.186V316.52C252.186 323.427 250.273 328.98 246.446 333.18C242.619 337.287 237.533 339.713 231.186 340.46ZM292.946 400.1C286.692 400.1 281.139 398.98 276.286 396.74C271.526 394.5 267.792 391.327 265.086 387.22C262.472 383.113 261.166 378.4 261.166 373.08H281.046C281.139 375.32 281.699 377.233 282.726 378.82C283.846 380.313 285.339 381.433 287.206 382.18C289.072 382.833 291.219 383.16 293.646 383.16C295.606 383.16 297.379 382.88 298.966 382.32C300.552 381.76 301.859 380.92 302.886 379.8C303.912 378.587 304.426 377.187 304.426 375.6C304.426 373.267 303.212 371.54 300.786 370.42C298.359 369.3 294.719 368.32 289.866 367.48C286.786 367.013 284.219 366.547 282.166 366.08C280.206 365.613 277.826 364.82 275.026 363.7C272.319 362.487 270.126 361.133 268.446 359.64C266.859 358.147 265.459 356.093 264.246 353.48C263.032 350.867 262.426 347.833 262.426 344.38C262.426 337.287 265.226 331.5 270.826 327.02C276.426 322.54 283.752 320.3 292.806 320.3C301.952 320.3 309.279 322.633 314.786 327.3C320.386 331.873 323.186 337.94 323.186 345.5H303.726C303.726 339.527 299.946 336.54 292.386 336.54C289.212 336.54 286.739 337.193 284.966 338.5C283.192 339.807 282.306 341.58 282.306 343.82C282.306 344.753 282.539 345.64 283.006 346.48C283.566 347.227 284.172 347.833 284.826 348.3C285.572 348.767 286.692 349.233 288.186 349.7C289.679 350.073 290.939 350.353 291.966 350.54C292.992 350.727 294.532 351.007 296.586 351.38C298.359 351.753 299.619 352.033 300.366 352.22C301.112 352.313 302.372 352.547 304.146 352.92C305.919 353.293 307.226 353.667 308.066 354.04C308.999 354.32 310.212 354.74 311.706 355.3C313.292 355.86 314.459 356.467 315.206 357.12C316.046 357.68 317.026 358.38 318.146 359.22C319.359 360.06 320.292 360.993 320.946 362.02C321.599 363.047 322.252 364.167 322.906 365.38C323.559 366.593 323.979 367.993 324.166 369.58C324.446 371.167 324.586 372.847 324.586 374.62C324.586 382.367 321.692 388.573 315.906 393.24C310.119 397.813 302.466 400.1 292.946 400.1ZM460.486 322.4H480.786L456.006 398H439.626L422.406 358.94L405.606 398H389.226L364.166 322.4H385.026L399.866 367.48L419.606 322.96H425.346L445.646 367.62L460.486 322.4ZM526.264 400.1C518.518 400.1 511.518 398.373 505.264 394.92C499.011 391.467 494.111 386.707 490.564 380.64C487.111 374.48 485.384 367.667 485.384 360.2C485.384 348.72 489.258 339.2 497.004 331.64C504.751 324.08 514.504 320.3 526.264 320.3C537.931 320.3 547.638 324.08 555.384 331.64C563.131 339.2 567.004 348.72 567.004 360.2C567.004 371.587 563.084 381.107 555.244 388.76C547.498 396.32 537.838 400.1 526.264 400.1ZM526.264 380.92C532.144 380.92 536.951 379.007 540.684 375.18C544.418 371.26 546.284 366.267 546.284 360.2C546.284 354.133 544.418 349.187 540.684 345.36C536.951 341.44 532.098 339.48 526.124 339.48C520.244 339.48 515.438 341.44 511.704 345.36C507.971 349.187 506.104 354.133 506.104 360.2C506.104 363.187 506.571 365.987 507.504 368.6C508.531 371.213 509.931 373.407 511.704 375.18C513.478 376.953 515.578 378.353 518.004 379.38C520.524 380.407 523.278 380.92 526.264 380.92ZM617.729 400.1C609.983 400.1 602.983 398.373 596.729 394.92C590.476 391.467 585.576 386.707 582.029 380.64C578.576 374.48 576.849 367.667 576.849 360.2C576.849 348.72 580.723 339.2 588.469 331.64C596.216 324.08 605.969 320.3 617.729 320.3C629.396 320.3 639.103 324.08 646.849 331.64C654.596 339.2 658.469 348.72 658.469 360.2C658.469 371.587 654.549 381.107 646.709 388.76C638.963 396.32 629.303 400.1 617.729 400.1ZM617.729 380.92C623.609 380.92 628.416 379.007 632.149 375.18C635.883 371.26 637.749 366.267 637.749 360.2C637.749 354.133 635.883 349.187 632.149 345.36C628.416 341.44 623.563 339.48 617.589 339.48C611.709 339.48 606.903 341.44 603.169 345.36C599.436 349.187 597.569 354.133 597.569 360.2C597.569 363.187 598.036 365.987 598.969 368.6C599.996 371.213 601.396 373.407 603.169 375.18C604.943 376.953 607.043 378.353 609.469 379.38C611.989 380.407 614.743 380.92 617.729 380.92ZM714.374 320.3C725.854 320.3 735.327 324.08 742.794 331.64C750.354 339.2 754.134 348.72 754.134 360.2C754.134 371.68 750.354 381.2 742.794 388.76C735.327 396.32 725.854 400.1 714.374 400.1C705.321 400.1 697.434 397.3 690.714 391.7L688.334 398H673.214V295.1H693.654V326.46C699.721 322.353 706.627 320.3 714.374 320.3ZM697.994 374.9C701.914 378.82 706.814 380.78 712.694 380.78C718.667 380.78 723.567 378.82 727.394 374.9C731.314 370.98 733.274 366.08 733.274 360.2C733.274 356.28 732.387 352.733 730.614 349.56C728.934 346.387 726.507 343.913 723.334 342.14C720.161 340.367 716.614 339.48 712.694 339.48C708.867 339.48 705.367 340.367 702.194 342.14C699.021 343.913 696.547 346.387 694.774 349.56C693.001 352.733 692.114 356.28 692.114 360.2C692.114 366.08 694.074 370.98 697.994 374.9ZM768.78 398V295.1H789.22V398H768.78ZM882.199 359.92C882.199 361.88 882.059 363.887 881.779 365.94H824.659C825.499 371.073 827.506 375.04 830.679 377.84C833.946 380.547 838.099 381.9 843.139 381.9C846.592 381.9 849.719 381.153 852.519 379.66C855.319 378.073 857.512 375.927 859.099 373.22H880.659C877.859 381.433 873.099 387.967 866.379 392.82C859.659 397.673 851.912 400.1 843.139 400.1C831.939 400.1 822.606 396.273 815.139 388.62C807.672 380.967 803.939 371.493 803.939 360.2C803.939 355.72 804.546 351.427 805.759 347.32C807.066 343.213 808.886 339.527 811.219 336.26C813.646 332.993 816.446 330.193 819.619 327.86C822.792 325.433 826.386 323.567 830.399 322.26C834.412 320.953 838.659 320.3 843.139 320.3C850.699 320.3 857.466 322.073 863.439 325.62C869.506 329.167 874.126 333.973 877.299 340.04C880.566 346.107 882.199 352.733 882.199 359.92ZM843.139 337.66C838.566 337.66 834.692 338.92 831.519 341.44C828.439 343.96 826.339 347.46 825.219 351.94H861.759C860.826 348.86 859.472 346.293 857.699 344.24C855.926 342.093 853.779 340.46 851.259 339.34C848.832 338.22 846.126 337.66 843.139 337.66ZM1000.11 389.18C992.452 396.46 982.792 400.1 971.125 400.1C959.459 400.1 949.799 396.46 942.145 389.18C934.492 381.9 930.665 372.567 930.665 361.18V300H951.945V360.2C951.945 366.173 953.719 370.98 957.265 374.62C960.812 378.26 965.432 380.08 971.125 380.08C976.819 380.08 981.439 378.26 984.985 374.62C988.625 370.98 990.445 366.173 990.445 360.2V300H1011.59V361.18C1011.59 372.567 1007.76 381.9 1000.11 389.18ZM1032.95 398V300H1054.23V398H1032.95Z" fill="white"/>
<path d="M364.76 503.48C362.573 505.56 359.813 506.6 356.48 506.6C353.147 506.6 350.387 505.56 348.2 503.48C346.013 501.4 344.92 498.733 344.92 495.48V478H351V495.2C351 496.907 351.507 498.28 352.52 499.32C353.533 500.36 354.853 500.88 356.48 500.88C358.107 500.88 359.427 500.36 360.44 499.32C361.48 498.28 362 496.907 362 495.2V478H368.04V495.48C368.04 498.733 366.947 501.4 364.76 503.48ZM374.145 506V478H380.225V506H374.145ZM400.857 499.32C399.417 499.32 398.217 498.84 397.257 497.88C396.297 496.92 395.817 495.72 395.817 494.28C395.817 493.32 396.03 492.453 396.457 491.68C396.91 490.907 397.523 490.307 398.297 489.88C399.07 489.453 399.923 489.24 400.857 489.24C402.297 489.24 403.497 489.72 404.457 490.68C405.417 491.64 405.897 492.84 405.897 494.28C405.897 495.72 405.417 496.92 404.457 497.88C403.497 498.84 402.297 499.32 400.857 499.32ZM421.089 506V476.6H426.929V506H421.089ZM432.534 481.52V476.08H438.374V481.52H432.534ZM432.534 506V484.4H438.374V506H432.534ZM455.74 483.8C459.02 483.8 461.726 484.88 463.86 487.04C466.02 489.2 467.1 491.92 467.1 495.2C467.1 498.48 466.02 501.2 463.86 503.36C461.726 505.52 459.02 506.6 455.74 506.6C453.153 506.6 450.9 505.8 448.98 504.2L448.3 506H443.98V476.6H449.82V485.56C451.553 484.387 453.526 483.8 455.74 483.8ZM451.06 499.4C452.18 500.52 453.58 501.08 455.26 501.08C456.966 501.08 458.366 500.52 459.46 499.4C460.58 498.28 461.14 496.88 461.14 495.2C461.14 494.08 460.886 493.067 460.38 492.16C459.9 491.253 459.206 490.547 458.3 490.04C457.393 489.533 456.38 489.28 455.26 489.28C454.166 489.28 453.166 489.533 452.26 490.04C451.353 490.547 450.646 491.253 450.14 492.16C449.633 493.067 449.38 494.08 449.38 495.2C449.38 496.88 449.94 498.28 451.06 499.4ZM482.324 484.28H484.244V489.8H481.724C480.071 489.8 478.884 490.187 478.164 490.96C477.471 491.733 477.124 493 477.124 494.76V506H471.284V484.4H475.044L476.084 487.04C477.551 485.2 479.631 484.28 482.324 484.28ZM504.745 484.36H509.105V505.96H504.505L504.025 504.04C502.051 505.747 499.718 506.6 497.025 506.6C493.771 506.6 491.065 505.52 488.905 503.36C486.771 501.173 485.705 498.44 485.705 495.16C485.705 491.907 486.771 489.2 488.905 487.04C491.065 484.88 493.771 483.8 497.025 483.8C499.771 483.8 502.131 484.68 504.105 486.44L504.745 484.36ZM493.265 499.4C494.385 500.52 495.785 501.08 497.465 501.08C499.171 501.08 500.585 500.52 501.705 499.4C502.825 498.28 503.385 496.867 503.385 495.16C503.385 493.453 502.825 492.04 501.705 490.92C500.585 489.8 499.185 489.24 497.505 489.24C496.385 489.24 495.371 489.507 494.465 490.04C493.585 490.547 492.891 491.253 492.385 492.16C491.878 493.04 491.625 494.04 491.625 495.16C491.625 496.867 492.171 498.28 493.265 499.4ZM525.762 484.28H527.682V489.8H525.162C523.509 489.8 522.322 490.187 521.602 490.96C520.909 491.733 520.562 493 520.562 494.76V506H514.722V484.4H518.482L519.522 487.04C520.989 485.2 523.069 484.28 525.762 484.28ZM545.931 484.4H552.171L542.731 505.72C541.398 508.707 540.038 510.8 538.651 512C537.264 513.2 535.384 513.8 533.011 513.8H530.611V508.52H532.651C534.038 508.52 535.024 508.267 535.611 507.76C536.198 507.253 536.838 506.173 537.531 504.52L537.611 504.36L528.451 484.4H534.811L540.571 497.68L545.931 484.4ZM568.708 499.32C567.268 499.32 566.068 498.84 565.108 497.88C564.148 496.92 563.668 495.72 563.668 494.28C563.668 493.32 563.881 492.453 564.308 491.68C564.761 490.907 565.375 490.307 566.148 489.88C566.921 489.453 567.775 489.24 568.708 489.24C570.148 489.24 571.348 489.72 572.308 490.68C573.268 491.64 573.748 492.84 573.748 494.28C573.748 495.72 573.268 496.92 572.308 497.88C571.348 498.84 570.148 499.32 568.708 499.32ZM598.981 506.6C596.847 506.6 594.901 506.107 593.141 505.12C591.407 504.107 590.034 502.72 589.021 500.96C588.034 499.2 587.541 497.253 587.541 495.12C587.541 491.893 588.634 489.2 590.821 487.04C593.007 484.88 595.741 483.8 599.021 483.8C601.821 483.8 604.221 484.613 606.221 486.24C608.221 487.84 609.487 489.973 610.021 492.64H604.221C603.741 491.6 603.034 490.787 602.101 490.2C601.194 489.587 600.154 489.28 598.981 489.28C597.407 489.28 596.087 489.84 595.021 490.96C593.981 492.08 593.461 493.48 593.461 495.16C593.461 496.84 593.994 498.253 595.061 499.4C596.127 500.547 597.434 501.12 598.981 501.12C600.154 501.12 601.194 500.813 602.101 500.2C603.007 499.56 603.714 498.653 604.221 497.48H610.101C609.567 500.227 608.287 502.44 606.261 504.12C604.234 505.773 601.807 506.6 598.981 506.6ZM624.221 506.6C622.007 506.6 620.007 506.107 618.221 505.12C616.434 504.133 615.034 502.773 614.021 501.04C613.034 499.28 612.541 497.333 612.541 495.2C612.541 491.92 613.647 489.2 615.861 487.04C618.074 484.88 620.861 483.8 624.221 483.8C627.554 483.8 630.327 484.88 632.541 487.04C634.754 489.2 635.861 491.92 635.861 495.2C635.861 498.453 634.741 501.173 632.501 503.36C630.287 505.52 627.527 506.6 624.221 506.6ZM624.221 501.12C625.901 501.12 627.274 500.573 628.341 499.48C629.407 498.36 629.941 496.933 629.941 495.2C629.941 493.467 629.407 492.053 628.341 490.96C627.274 489.84 625.887 489.28 624.181 489.28C622.501 489.28 621.127 489.84 620.061 490.96C618.994 492.053 618.461 493.467 618.461 495.2C618.461 496.053 618.594 496.853 618.861 497.6C619.154 498.347 619.554 498.973 620.061 499.48C620.567 499.987 621.167 500.387 621.861 500.68C622.581 500.973 623.367 501.12 624.221 501.12ZM664.633 483.88C666.873 483.88 668.7 484.68 670.113 486.28C671.553 487.88 672.273 489.933 672.273 492.44V506H666.433V493.4C666.433 490.467 665.34 489 663.153 489C662.3 489 661.553 489.213 660.913 489.64C660.3 490.04 659.833 490.64 659.513 491.44C659.193 492.24 659.033 493.2 659.033 494.32V506H653.313V493.4C653.313 490.467 652.26 489 650.153 489C648.82 489 647.78 489.467 647.033 490.4C646.287 491.333 645.913 492.64 645.913 494.32V506H640.073V484.4H644.153L645.233 487.08C646.033 486.093 646.993 485.32 648.113 484.76C649.26 484.173 650.46 483.88 651.713 483.88C653.073 483.88 654.3 484.187 655.393 484.8C656.487 485.413 657.34 486.267 657.953 487.36C658.22 486.987 658.5 486.653 658.793 486.36C659.087 486.04 659.407 485.76 659.753 485.52C660.1 485.253 660.46 485.027 660.833 484.84C661.207 484.627 661.593 484.453 661.993 484.32C662.42 484.187 662.847 484.08 663.273 484C663.727 483.92 664.18 483.88 664.633 483.88ZM689.413 483.8C692.666 483.8 695.359 484.88 697.493 487.04C699.653 489.2 700.733 491.92 700.733 495.2C700.733 498.48 699.653 501.213 697.493 503.4C695.333 505.56 692.639 506.64 689.413 506.64C687.199 506.64 685.213 506.04 683.453 504.84V513.8H677.613V484.4H681.493L682.493 486.36C684.412 484.653 686.719 483.8 689.413 483.8ZM684.693 499.44C685.813 500.56 687.213 501.12 688.893 501.12C690.599 501.12 692.013 500.56 693.133 499.44C694.253 498.32 694.812 496.907 694.812 495.2C694.812 494.08 694.559 493.067 694.053 492.16C693.546 491.253 692.839 490.547 691.933 490.04C691.053 489.533 690.053 489.28 688.933 489.28C687.813 489.28 686.799 489.533 685.893 490.04C684.986 490.547 684.279 491.253 683.773 492.16C683.293 493.067 683.053 494.08 683.053 495.2C683.053 496.907 683.599 498.32 684.693 499.44ZM715.158 506.6C712.945 506.6 710.945 506.107 709.158 505.12C707.371 504.133 705.971 502.773 704.958 501.04C703.971 499.28 703.478 497.333 703.478 495.2C703.478 491.92 704.585 489.2 706.798 487.04C709.011 484.88 711.798 483.8 715.158 483.8C718.491 483.8 721.265 484.88 723.478 487.04C725.691 489.2 726.798 491.92 726.798 495.2C726.798 498.453 725.678 501.173 723.438 503.36C721.225 505.52 718.465 506.6 715.158 506.6ZM715.158 501.12C716.838 501.12 718.211 500.573 719.278 499.48C720.345 498.36 720.878 496.933 720.878 495.2C720.878 493.467 720.345 492.053 719.278 490.96C718.211 489.84 716.825 489.28 715.118 489.28C713.438 489.28 712.065 489.84 710.998 490.96C709.931 492.053 709.398 493.467 709.398 495.2C709.398 496.053 709.531 496.853 709.798 497.6C710.091 498.347 710.491 498.973 710.998 499.48C711.505 499.987 712.105 500.387 712.798 500.68C713.518 500.973 714.305 501.12 715.158 501.12ZM743.331 483.88C745.784 483.88 747.718 484.707 749.131 486.36C750.571 487.987 751.291 490.173 751.291 492.92V506H745.451V493.84C745.451 490.613 744.198 489 741.691 489C740.704 489 739.838 489.227 739.091 489.68C738.371 490.133 737.811 490.787 737.411 491.64C737.038 492.493 736.851 493.493 736.851 494.64V506H731.011V484.4H735.011L736.171 487.08C736.571 486.573 737.024 486.133 737.531 485.76C738.064 485.36 738.638 485.027 739.251 484.76C739.864 484.467 740.504 484.253 741.171 484.12C741.864 483.96 742.584 483.88 743.331 483.88ZM777.596 495.12C777.596 495.68 777.556 496.253 777.476 496.84H761.156C761.396 498.307 761.969 499.44 762.876 500.24C763.809 501.013 764.996 501.4 766.436 501.4C767.423 501.4 768.316 501.187 769.116 500.76C769.916 500.307 770.543 499.693 770.996 498.92H777.156C776.356 501.267 774.996 503.133 773.076 504.52C771.156 505.907 768.943 506.6 766.436 506.6C763.236 506.6 760.569 505.507 758.436 503.32C756.303 501.133 755.236 498.427 755.236 495.2C755.236 493.92 755.409 492.693 755.756 491.52C756.129 490.347 756.649 489.293 757.316 488.36C758.009 487.427 758.809 486.627 759.716 485.96C760.623 485.267 761.649 484.733 762.796 484.36C763.943 483.987 765.156 483.8 766.436 483.8C768.596 483.8 770.529 484.307 772.236 485.32C773.969 486.333 775.289 487.707 776.196 489.44C777.129 491.173 777.596 493.067 777.596 495.12ZM766.436 488.76C765.129 488.76 764.023 489.12 763.116 489.84C762.236 490.56 761.636 491.56 761.316 492.84H771.756C771.489 491.96 771.103 491.227 770.596 490.64C770.089 490.027 769.476 489.56 768.756 489.24C768.063 488.92 767.289 488.76 766.436 488.76ZM794.073 483.88C796.526 483.88 798.46 484.707 799.873 486.36C801.313 487.987 802.033 490.173 802.033 492.92V506H796.193V493.84C796.193 490.613 794.94 489 792.433 489C791.446 489 790.58 489.227 789.833 489.68C789.113 490.133 788.553 490.787 788.153 491.64C787.78 492.493 787.593 493.493 787.593 494.64V506H781.753V484.4H785.753L786.913 487.08C787.313 486.573 787.766 486.133 788.273 485.76C788.806 485.36 789.38 485.027 789.993 484.76C790.606 484.467 791.246 484.253 791.913 484.12C792.606 483.96 793.326 483.88 794.073 483.88ZM817.782 500.8H820.422V506H816.302C814.729 506 813.355 505.693 812.182 505.08C811.035 504.467 810.155 503.587 809.542 502.44C808.929 501.267 808.622 499.88 808.622 498.28V489.08H804.702V487.84L813.262 478.76H814.342V484.4H820.302V489.08H814.462V497.52C814.462 498.56 814.742 499.373 815.302 499.96C815.889 500.52 816.715 500.8 817.782 500.8ZM832.089 506.6C830.303 506.6 828.716 506.28 827.329 505.64C825.969 505 824.903 504.093 824.129 502.92C823.383 501.747 823.009 500.4 823.009 498.88H828.689C828.716 499.52 828.876 500.067 829.169 500.52C829.489 500.947 829.916 501.267 830.449 501.48C830.983 501.667 831.596 501.76 832.289 501.76C832.849 501.76 833.356 501.68 833.809 501.52C834.263 501.36 834.636 501.12 834.929 500.8C835.223 500.453 835.369 500.053 835.369 499.6C835.369 498.933 835.023 498.44 834.329 498.12C833.636 497.8 832.596 497.52 831.209 497.28C830.329 497.147 829.596 497.013 829.009 496.88C828.449 496.747 827.769 496.52 826.969 496.2C826.196 495.853 825.569 495.467 825.089 495.04C824.636 494.613 824.236 494.027 823.889 493.28C823.543 492.533 823.369 491.667 823.369 490.68C823.369 488.653 824.169 487 825.769 485.72C827.369 484.44 829.463 483.8 832.049 483.8C834.663 483.8 836.756 484.467 838.329 485.8C839.929 487.107 840.729 488.84 840.729 491H835.169C835.169 489.293 834.089 488.44 831.929 488.44C831.023 488.44 830.316 488.627 829.809 489C829.303 489.373 829.049 489.88 829.049 490.52C829.049 490.787 829.116 491.04 829.249 491.28C829.409 491.493 829.583 491.667 829.769 491.8C829.983 491.933 830.303 492.067 830.729 492.2C831.156 492.307 831.516 492.387 831.809 492.44C832.103 492.493 832.543 492.573 833.129 492.68C833.636 492.787 833.996 492.867 834.209 492.92C834.423 492.947 834.783 493.013 835.289 493.12C835.796 493.227 836.169 493.333 836.409 493.44C836.676 493.52 837.023 493.64 837.449 493.8C837.903 493.96 838.236 494.133 838.449 494.32C838.689 494.48 838.969 494.68 839.289 494.92C839.636 495.16 839.903 495.427 840.089 495.72C840.276 496.013 840.463 496.333 840.649 496.68C840.836 497.027 840.956 497.427 841.009 497.88C841.089 498.333 841.129 498.813 841.129 499.32C841.129 501.533 840.303 503.307 838.649 504.64C836.996 505.947 834.809 506.6 832.089 506.6Z" fill="white"/>
</g>
<defs>
<clipPath id="clip0_13_21">
<rect width="1185" height="720" fill="white"/>
</clipPath>
</defs>
</svg>
